<svg xmlns="http://www.w3.org/2000/svg" xmlns:xlink="http://www.w3.org/1999/xlink" xmlns:lucid="lucid" width="1279"
     height="1143.75">
    <g transform="translate(199 259.55)" lucid:page-tab-id="0_0">
        <path d="M80 46.5c0-2.76 2.24-5 5-5h190c2.76 0 5 2.24 5 5v62c0 2.76-2.24 5-5 5H85c-2.76 0-5-2.24-5-5z"
              fill="#fff"/>
        <path d="M80 46.5c0-2.76 2.24-5 5-5h190c2.76 0 5 2.24 5 5v62c0 2.76-2.24 5-5 5H85c-2.76 0-5-2.24-5-5zM80 81.5h200"
              stroke="#666" stroke-width="2" fill="none"/>
        <use xlink:href="#a" transform="matrix(1,0,0,1,90,41.5) translate(58.074999999999996 23.6)"/>
        <path d="M500 46.5c0-2.76 2.24-5 5-5h190c2.76 0 5 2.24 5 5v62c0 2.76-2.24 5-5 5H505c-2.76 0-5-2.24-5-5z"
              fill="#fff"/>
        <path d="M500 46.5c0-2.76 2.24-5 5-5h190c2.76 0 5 2.24 5 5v62c0 2.76-2.24 5-5 5H505c-2.76 0-5-2.24-5-5zM500 81.5h200"
              stroke="#666" stroke-width="2" fill="none"/>
        <use xlink:href="#b" transform="matrix(1,0,0,1,510,41.5) translate(22.825000000000003 23.6)"/>
        <path d="M365.52 62.34H281v-2h84.52zm133.48 0h-84.52v-2H499z" fill="#999"/>
        <path d="M303.68 61.34l-21.8 10.9-.88-1.8 18.2-9.1-18.2-9.1.9-1.8z" fill="#999"/>
        <path fill="#fff"/>
        <path d="M302.45 71.34h-2v-20h2zM499 52.23l-18.2 9.1 18.2 9.12-.9 1.78-21.78-10.9 21.8-10.88z" fill="#999"/>
        <path d="M471.7 51.85l2.76 1.42 2.16 2.16 1.42 2.75.5 3.16-.5 3.16-1.42 2.75-2.16 2.16-2.75 1.43-3.15.5-3.16-.5-2.75-1.42-2.17-2.15-1.42-2.75-.5-3.16.5-3.16 1.42-2.75 2.17-2.16 2.74-1.42 3.15-.5z"
              fill="#fff"/>
        <path d="M472.03 50.9l3.03 1.55 2.38 2.4 1.56 3 .54 3.33-1 .16 1 .16-.54 3.32-1.56 3.02-2.38 2.4-3.03 1.55-3.48.55-3.48-.56-3.02-1.57-2.38-2.4-1.57-3-.56-3.5.56-3.47 1.57-3.02 2.38-2.4 3.02-1.55 3.48-.57zm-6.32 1.9l-2.46 1.3-1.94 1.93-1.28 2.47-.45 2.84.45 2.84 1.28 2.47 1.94 1.94 2.47 1.27 2.85.46 2.85-.46 2.46-1.28 1.95-1.95 1.28-2.47.46-2.84-.46-2.84-1.27-2.47-1.94-1.94-2.46-1.3-2.85-.45z"
              fill="#999"/>
        <use xlink:href="#c"
             transform="matrix(1,0,0,1,365.525,50.540000000000006) translate(0.004999999999999005 14.4)"/>
        <path d="M80-152c0-2.76 2.24-5 5-5h190c2.76 0 5 2.24 5 5v62c0 2.76-2.24 5-5 5H85c-2.76 0-5-2.24-5-5z"
              fill="#fff"/>
        <path d="M80-152c0-2.76 2.24-5 5-5h190c2.76 0 5 2.24 5 5v62c0 2.76-2.24 5-5 5H85c-2.76 0-5-2.24-5-5zM80-117h200"
              stroke="#666" stroke-width="2" fill="none"/>
        <use xlink:href="#d" transform="matrix(1,0,0,1,90,-157) translate(46.574999999999996 23.6)"/>
        <path d="M181 40.5h-2v-51.45h2zm0-73.05h-2V-84h2z" fill="#999"/>
        <path fill="#fff"/>
        <path d="M190-63h-20v-2h20zM190.9 39.6l-1.8.9-9.1-18.2-9.1 18.2-1.8-.9L180 17.83z" fill="#999"/>
        <path fill="#fff"/>
        <path d="M190 21.05h-20v-2h20z" fill="#999"/>
        <use xlink:href="#e" transform="matrix(1,0,0,1,145.575,-32.55) translate(0.005000000000002558 14.4)"/>
        <path d="M-160 46.5c0-2.76 2.24-5 5-5h142c2.76 0 5 2.24 5 5v71.4c0 2.76-2.24 5-5 5h-142c-2.76 0-5-2.24-5-5z"
              stroke="#000" stroke-opacity="0" stroke-width="2" fill="#fff" fill-opacity="0"/>
        <use xlink:href="#f" transform="matrix(1,0,0,1,-155,46.5) translate(0 28.799999999999997)"/>
        <use xlink:href="#g" transform="matrix(1,0,0,1,-155,46.5) translate(0 50.4)"/>
        <path d="M-160-152c0-2.76 2.24-5 5-5h130c2.76 0 5 2.24 5 5v108c0 2.76-2.24 5-5 5h-130c-2.76 0-5-2.24-5-5z"
              stroke="#000" stroke-opacity="0" stroke-width="2" fill="#fff" fill-opacity="0"/>
        <use xlink:href="#h" transform="matrix(1,0,0,1,-155,-152) translate(0 14.4)"/>
        <use xlink:href="#i" transform="matrix(1,0,0,1,-155,-152) translate(0 36)"/>
        <use xlink:href="#j" transform="matrix(1,0,0,1,-155,-152) translate(0 57.6)"/>
        <use xlink:href="#k" transform="matrix(1,0,0,1,-155,-152) translate(0 79.20000000000002)"/>
        <use xlink:href="#l" transform="matrix(1,0,0,1,-155,-152) translate(0 100.80000000000001)"/>
        <path d="M820 46.5c0-2.76 2.24-5 5-5h230c2.76 0 5 2.24 5 5v86.4c0 2.76-2.24 5-5 5H825c-2.76 0-5-2.24-5-5z"
              stroke="#000" stroke-opacity="0" stroke-width="2" fill="#fff" fill-opacity="0"/>
        <use xlink:href="#m" transform="matrix(1,0,0,1,825,46.5) translate(0 14.4)"/>
        <use xlink:href="#n" transform="matrix(1,0,0,1,825,46.5) translate(0 36)"/>
        <use xlink:href="#o" transform="matrix(1,0,0,1,825,46.5) translate(0 57.6)"/>
        <use xlink:href="#p" transform="matrix(1,0,0,1,825,46.5) translate(0 79.20000000000002)"/>
        <path d="M771 56.42l-.3 1.9-2.13 2.9-3.4 1.12H701v-2h63.84l2.5-.82 1.46-2 .2-1.26V.8h2zM722.45-9h-58.3l-2.5.82-1.45 2-.2 1.26V40.5h-2V-5.08l.3-1.9 2.13-2.9 3.4-1.12h58.62z"
              fill="#999"/>
        <path d="M723.68 61.34l-21.8 10.9-.88-1.8 18.2-9.1-18.2-9.1.9-1.8z" fill="#999"/>
        <path d="M734.6 51.85l2.75 1.42 2.17 2.16 1.42 2.75.5 3.16-.33 2.6-1 2.4-1.58 2.07-2.08 1.6-2.4 1-2.6.34-2.6-.34-2.4-1-2.06-1.6-1.6-2.07-1-2.4-.33-2.6.5-3.15 1.43-2.75 2.16-2.16 2.75-1.42 3.15-.5z"
              fill="#fff"/>
        <path d="M734.93 50.9l3.02 1.55 2.38 2.4 1.57 3 .53 3.33-.98.16 1 .13-.37 2.73-1.1 2.64-1.75 2.28-2.3 1.76-2.63 1.1-2.85.37-2.86-.38-2.65-1.1-2.3-1.75-1.74-2.28-1.1-2.64-.36-2.87.56-3.47 1.56-3.02 2.38-2.4 3.03-1.55 3.48-.57zm-6.33 1.9l-2.46 1.3-1.95 1.93-1.28 2.47-.46 2.85.3 2.32.9 2.16 1.43 1.87 1.86 1.43 2.15.9 2.35.3 2.33-.3 2.16-.9 1.86-1.43 1.44-1.87.9-2.16.3-2.32-.46-2.85-1.28-2.47-1.94-1.94-2.47-1.3-2.85-.45z"
              fill="#999"/>
        <path fill="#fff"/>
        <path d="M669 31.5h-20v-2h20z" fill="#999"/>
        <path d="M662.16 1l2.75 1.43 2.17 2.16 1.42 2.74.5 3.16-.5 3.16-1.43 2.75-2.16 2.17-2.74 1.42-3.16.5-3.16-.5-2.75-1.43-2.17-2.16-1.42-2.74-.5-3.16.34-2.6 1-2.4 1.6-2.07 2.07-1.6 2.4-1L659 .5z"
              fill="#fff"/>
        <path d="M662.48.05l3.02 1.56 2.4 2.4 1.55 3.02.54 3.32-1 .16 1 .16-.55 3.32L667.9 17l-2.4 2.4-3.02 1.55-3.48.56-3.48-.55-3.02-1.56-2.4-2.4-1.55-3.02-.56-3.47.37-2.86 1.1-2.64 1.75-2.28L653.5.96l2.64-1.1L659-.5zm-5.8 1.76l-2.17.9-1.86 1.44L651.2 6l-.9 2.17-.3 2.32.47 2.84 1.28 2.47 1.94 1.95 2.46 1.28 2.84.46 2.84-.47 2.47-1.28 1.95-1.94 1.28-2.46.46-2.84-.47-2.84-1.28-2.47-1.94-1.95-2.46-1.28L659 1.5z"
              fill="#999"/>
        <use xlink:href="#q" transform="matrix(1,0,0,1,722.4449999999999,-20.8) translate(0.005000000000002558 14.4)"/>
        <path d="M80 245c0-2.76 2.24-5 5-5h190c2.76 0 5 2.24 5 5v62c0 2.76-2.24 5-5 5H85c-2.76 0-5-2.24-5-5z"
              fill="#fff"/>
        <path d="M80 245c0-2.76 2.24-5 5-5h190c2.76 0 5 2.24 5 5v62c0 2.76-2.24 5-5 5H85c-2.76 0-5-2.24-5-5zM80 280h200"
              stroke="#666" stroke-width="2" fill="none"/>
        <use xlink:href="#r" transform="matrix(1,0,0,1,90,240) translate(40.05 23.6)"/>
        <path d="M-160 245c0-2.76 2.24-5 5-5H-5c2.76 0 5 2.24 5 5v50c0 2.76-2.24 5-5 5h-150c-2.76 0-5-2.24-5-5z"
              stroke="#000" stroke-opacity="0" stroke-width="2" fill="#fff" fill-opacity="0"/>
        <use xlink:href="#s" transform="matrix(1,0,0,1,-155,245) translate(0 14.4)"/>
        <use xlink:href="#t" transform="matrix(1,0,0,1,-155,245) translate(0 36)"/>
        <path d="M500 245c0-2.76 2.24-5 5-5h190c2.76 0 5 2.24 5 5v62c0 2.76-2.24 5-5 5H505c-2.76 0-5-2.24-5-5z"
              fill="#fff"/>
        <path d="M500 245c0-2.76 2.24-5 5-5h190c2.76 0 5 2.24 5 5v62c0 2.76-2.24 5-5 5H505c-2.76 0-5-2.24-5-5zM500 280h200"
              stroke="#666" stroke-width="2" fill="none"/>
        <use xlink:href="#u" transform="matrix(1,0,0,1,510,240) translate(23.14999999999999 23.6)"/>
        <path d="M356.05 260.84H281v-2h75.05zm142.95 0h-75.05v-2H499z" fill="#999"/>
        <path d="M303.68 259.84l-21.8 10.9-.88-1.8 18.2-9.1-18.2-9.1.9-1.8z" fill="#999"/>
        <path fill="#fff"/>
        <path d="M302.45 269.84h-2v-20h2z" fill="#999"/>
        <path fill="#fff"/>
        <path d="M480 269.84h-2v-20h2z" fill="#999"/>
        <use xlink:href="#v"
             transform="matrix(1,0,0,1,356.05,249.03999999999996) translate(0.005000000000002558 14.4)"/>
        <path d="M820 251c0-2.76 2.24-5 5-5h130c2.76 0 5 2.24 5 5v50c0 2.76-2.24 5-5 5H825c-2.76 0-5-2.24-5-5z"
              stroke="#000" stroke-opacity="0" stroke-width="2" fill="#fff" fill-opacity="0"/>
        <use xlink:href="#w" transform="matrix(1,0,0,1,825,251) translate(0 14.4)"/>
        <use xlink:href="#x" transform="matrix(1,0,0,1,825,251) translate(0 36)"/>
        <path d="M500 433c0-2.76 2.24-5 5-5h190c2.76 0 5 2.24 5 5v62c0 2.76-2.24 5-5 5H505c-2.76 0-5-2.24-5-5z"
              fill="#fff"/>
        <path d="M500 433c0-2.76 2.24-5 5-5h190c2.76 0 5 2.24 5 5v62c0 2.76-2.24 5-5 5H505c-2.76 0-5-2.24-5-5zM500 468h200"
              stroke="#666" stroke-width="2" fill="none"/>
        <use xlink:href="#y" transform="matrix(1,0,0,1,510,428) translate(50.725 23.6)"/>
        <path d="M500-152c0-2.76 2.24-5 5-5h190c2.76 0 5 2.24 5 5v62c0 2.76-2.24 5-5 5H505c-2.76 0-5-2.24-5-5z"
              fill="#fff"/>
        <path d="M500-152c0-2.76 2.24-5 5-5h190c2.76 0 5 2.24 5 5v62c0 2.76-2.24 5-5 5H505c-2.76 0-5-2.24-5-5zM500-117h200"
              stroke="#666" stroke-width="2" fill="none"/>
        <use xlink:href="#z" transform="matrix(1,0,0,1,510,-157) translate(22.641975308641975 23.555555555555557)"/>
        <path d="M595.16 369l3.4 1.1 2.13 2.92.3 1.9V427h-2v-51.92l-.2-1.26-1.46-2-2.5-.82H427.5v-2zm-413.34-1.66l2 1.46 1.26.2H352.5v2H184.92l-1.9-.3-2.9-2.13-1.12-3.4V313h2v51.84z"
              fill="#999"/>
        <path fill="#fff"/>
        <path d="M190 334h-20v-2h20zM610.9 426.1l-1.8.9-9.1-18.2-9.1 18.2-1.8-.9 10.9-21.78z" fill="#999"/>
        <path fill="#fff"/>
        <path d="M610 407.55h-20v-2h20z" fill="#999"/>
        <use xlink:href="#A" transform="matrix(1,0,0,1,352.5,359.2) translate(0.005000000000002558 14.4)"/>
        <path d="M731 354.08l-.3 1.9-2.13 2.9-3.4 1.12h-65.1l-1.25.2-2 1.46-.82 2.5V427h-2v-63.16l1.1-3.4 2.92-2.13 1.9-.3h64.92l2.5-.82 1.46-2 .2-1.26V223.05h2zM601 174.92l.2 1.26 1.46 2 2.5.82h119.92l1.9.3 2.9 2.13 1.12 3.4v16.62h-2v-16.3l-.82-2.5-2-1.45-1.26-.2H604.84l-3.4-1.1-2.13-2.92-.3-1.9V114.5h2z"
              fill="#999"/>
        <path d="M665.9 426.1l-1.8.9-9.1-18.2-9.1 18.2-1.8-.9 10.9-21.78z" fill="#999"/>
        <path d="M658.16 387.06l2.75 1.42 2.17 2.17 1.42 2.74.5 3.15-.5 3.16-1.43 2.76-2.16 2.16-2.74 1.42-3.16.5-3.16-.5-2.75-1.42-2.17-2.16-1.42-2.75-.5-3.15.5-3.16 1.43-2.75 2.16-2.17 2.74-1.42 3.16-.5z"
              fill="#fff"/>
        <path d="M658.48 386.1l3.02 1.57 2.4 2.38 1.55 3.02.54 3.32-1 .15 1 .16-.55 3.33-1.56 3.03-2.4 2.38-3.02 1.56-3.48.57-3.48-.57-3.02-1.56-2.4-2.38-1.55-3.03-.56-3.48.55-3.48 1.56-3.02 2.4-2.38 3.02-1.57 3.48-.56zm-6.32 1.92l-2.47 1.28-1.95 1.94-1.28 2.47-.46 2.85.47 2.85 1.28 2.46 1.94 1.95 2.46 1.28 2.84.46 2.84-.46 2.47-1.27 1.95-1.94 1.28-2.46.46-2.85-.47-2.84-1.28-2.46-1.94-1.94-2.46-1.28-2.84-.45z"
              fill="#999"/>
        <path fill="#fff"/>
        <path d="M610 135.5h-20v-2h20z" fill="#999"/>
        <use xlink:href="#B" transform="matrix(1,0,0,1,694,201.4544378698224) translate(0.005000000000002558 14.4)"/>
        <path d="M820 405c0-2.76 2.24-5 5-5h150c2.76 0 5 2.24 5 5v86.4c0 2.76-2.24 5-5 5H825c-2.76 0-5-2.24-5-5z"
              stroke="#000" stroke-opacity="0" stroke-width="2" fill="#fff" fill-opacity="0"/>
        <use xlink:href="#C" transform="matrix(1,0,0,1,825,405) translate(0 14.4)"/>
        <use xlink:href="#D" transform="matrix(1,0,0,1,825,405) translate(0 36)"/>
        <path d="M601 40.5h-2v-61.85h2zm0-83.45h-2V-84h2z" fill="#999"/>
        <path d="M610.9 39.6l-1.8.9-9.1-18.2-9.1 18.2-1.8-.9L600 17.83z" fill="#999"/>
        <path d="M603.16.56l2.75 1.42 2.17 2.17 1.42 2.74.5 3.15-.5 3.16-1.43 2.76-2.16 2.16-2.74 1.42-3.16.5-3.16-.5-2.75-1.42-2.17-2.16-1.42-2.75-.5-3.15.34-2.6 1-2.4 1.6-2.07 2.07-1.6 2.4-1 2.6-.33z"
              fill="#fff"/>
        <path d="M603.48-.4l3.02 1.57 2.4 2.38 1.55 3.02.54 3.32-1 .15 1 .16-.55 3.33-1.56 3.03-2.4 2.38-3.02 1.56-3.48.57-3.48-.57-3.02-1.56-2.4-2.38-1.55-3.03-.56-3.46.37-2.87 1.1-2.64 1.75-2.3L594.5.52l2.64-1.08L600-.96zm-5.8 1.77l-2.17.9-1.86 1.42-1.43 1.86-.9 2.16-.3 2.32.47 2.86 1.28 2.46 1.94 1.95 2.46 1.28 2.84.46 2.84-.46 2.47-1.27 1.95-1.94 1.28-2.46.46-2.85-.47-2.84-1.28-2.46-1.94-1.94-2.46-1.28-2.85-.46z"
              fill="#999"/>
        <path fill="#fff"/>
        <path d="M610-63h-20v-2h20z" fill="#999"/>
        <use xlink:href="#E"
             transform="matrix(1,0,0,1,567.075,-42.95126582278485) translate(0.005000000000002558 14.4)"/>
        <path d="M820-152c0-2.76 2.24-5 5-5h167c2.76 0 5 2.24 5 5v64.8c0 2.76-2.24 5-5 5H825c-2.76 0-5-2.24-5-5z"
              stroke="#000" stroke-opacity="0" stroke-width="2" fill="#fff" fill-opacity="0"/>
        <use xlink:href="#F" transform="matrix(1,0,0,1,825,-152) translate(0 14.4)"/>
        <use xlink:href="#G" transform="matrix(1,0,0,1,825,-152) translate(0 36)"/>
        <path d="M80 429c0-2.76 2.24-5 5-5h190c2.76 0 5 2.24 5 5v62c0 2.76-2.24 5-5 5H85c-2.76 0-5-2.24-5-5z"
              fill="#fff"/>
        <path d="M80 429c0-2.76 2.24-5 5-5h190c2.76 0 5 2.24 5 5v62c0 2.76-2.24 5-5 5H85c-2.76 0-5-2.24-5-5zM80 464h200"
              stroke="#666" stroke-width="2" fill="none"/>
        <use xlink:href="#H" transform="matrix(1,0,0,1,90,424) translate(23.650000000000006 23.6)"/>
        <path d="M499 446.84v2h-72.02v-2zm-218-2v-2h72.02v2z" fill="#999"/>
        <path fill="#fff"/>
        <path d="M302 453.84h-2v-20h2zM499 438.73l-18.2 9.1 18.2 9.12-.9 1.78-21.78-10.9 21.8-10.88z" fill="#999"/>
        <path fill="#fff"/>
        <path d="M479.55 457.84h-2v-20h2z" fill="#999"/>
        <use xlink:href="#I" transform="matrix(1,0,0,1,353.025,435.04) translate(0.005000000000002558 14.4)"/>
        <path d="M-160 429c0-2.76 2.24-5 5-5h142c2.76 0 5 2.24 5 5v86.4c0 2.76-2.24 5-5 5h-142c-2.76 0-5-2.24-5-5z"
              stroke="#000" stroke-opacity="0" stroke-width="2" fill="#fff" fill-opacity="0"/>
        <use xlink:href="#J" transform="matrix(1,0,0,1,-155,429) translate(0 14.4)"/>
        <use xlink:href="#D" transform="matrix(1,0,0,1,-155,429) translate(0 36)"/>
        <path d="M80 585c0-2.76 2.24-5 5-5h190c2.76 0 5 2.24 5 5v62c0 2.76-2.24 5-5 5H85c-2.76 0-5-2.24-5-5z"
              fill="#fff"/>
        <path d="M80 585c0-2.76 2.24-5 5-5h190c2.76 0 5 2.24 5 5v62c0 2.76-2.24 5-5 5H85c-2.76 0-5-2.24-5-5zM80 620h200"
              stroke="#666" stroke-width="2" fill="none"/>
        <use xlink:href="#K" transform="matrix(1,0,0,1,90,580) translate(25.099999999999994 23.6)"/>
        <path d="M21 594.68l.82 2.5 2 1.46 1.26.2H79v2H24.92l-1.9-.3-2.9-2.13L19 595V372.66h2zM79 62.34H25.16l-2.5.82-1.46 2-.2 1.26v284.64h-2V66.26l.3-1.9 2.13-2.9 3.4-1.12H79z"
              fill="#999"/>
        <path d="M79 52.23l-18.2 9.1L79 70.46l-.9 1.78-21.78-10.9 21.8-10.88z" fill="#999"/>
        <path fill="#fff"/>
        <path d="M59.55 71.34h-2v-20h2z" fill="#999"/>
        <path fill="#fff"/>
        <path d="M70 609.84h-2v-20h2z" fill="#999"/>
        <path d="M52.16 590.35l2.75 1.42 2.17 2.16 1.42 2.75.5 3.16-.5 3.16-1.43 2.75-2.16 2.16-2.74 1.43-3.16.5-3.16-.5-2.75-1.42-2.17-2.15L39.5 603l-.5-3.16.5-3.16 1.43-2.75 2.16-2.16 2.74-1.42 3.16-.5z"
              fill="#fff"/>
        <path d="M52.48 589.4l3.02 1.55 2.4 2.4 1.55 3 .54 3.33-1 .16 1 .16-.55 3.32-1.56 3.02-2.4 2.4-3.02 1.55-3.48.55-3.48-.56-3.02-1.57-2.4-2.4-1.55-3-.56-3.5.55-3.47 1.56-3.02 2.4-2.4 3.02-1.55 3.48-.57zm-6.32 1.9l-2.47 1.3-1.95 1.93-1.28 2.47-.46 2.84.47 2.84 1.28 2.47 1.94 1.94 2.46 1.27 2.84.46 2.84-.46 2.47-1.28 1.95-1.95 1.28-2.47.46-2.84-.47-2.84-1.28-2.47-1.94-1.94-2.46-1.3-2.84-.45z"
              fill="#999"/>
        <use xlink:href="#L"
             transform="matrix(1,0,0,1,-14.475000000000009,351.0601315789473) translate(0.005000000000002558 14.4)"/>
        <path d="M-160 585c0-2.76 2.24-5 5-5h142c2.76 0 5 2.24 5 5v86.4c0 2.76-2.24 5-5 5h-142c-2.76 0-5-2.24-5-5z"
              stroke="#000" stroke-opacity="0" stroke-width="2" fill="#fff" fill-opacity="0"/>
        <use xlink:href="#M" transform="matrix(1,0,0,1,-155,585) translate(0 14.4)"/>
        <use xlink:href="#N" transform="matrix(1,0,0,1,-155,585) translate(0 36)"/>
        <use xlink:href="#O" transform="matrix(1,0,0,1,-155,585) translate(0 57.6)"/>
        <path d="M470 585c0-2.76 2.24-5 5-5h250c2.76 0 5 2.24 5 5v62c0 2.76-2.24 5-5 5H475c-2.76 0-5-2.24-5-5z"
              fill="#fff"/>
        <path d="M470 585c0-2.76 2.24-5 5-5h250c2.76 0 5 2.24 5 5v62c0 2.76-2.24 5-5 5H475c-2.76 0-5-2.24-5-5zM470 620h260"
              stroke="#666" stroke-width="2" fill="none"/>
        <use xlink:href="#P" transform="matrix(1,0,0,1,480,580) translate(3.375000000000014 23.6)"/>
        <path d="M469 598.88v2h-67v-2zm-121 0v2l-67-.04v-2z" fill="#999"/>
        <path fill="#fff"/>
        <path d="M450 609.88h-2v-20h2zM303.68 599.84l-21.8 10.9-.88-1.8 18.2-9.1-18.2-9.1.9-1.8z" fill="#999"/>
        <path d="M314.6 590.35l2.75 1.42 2.17 2.16 1.42 2.75.5 3.16-.5 3.16-1.42 2.75-2.17 2.16-2.74 1.43-3.15.5-3.16-.5-2.76-1.42-2.16-2.15-1.42-2.75-.5-3.16.5-3.16 1.42-2.75 2.16-2.16 2.75-1.42 3.15-.5z"
              fill="#fff"/>
        <path d="M314.93 589.4l3.02 1.55 2.38 2.4 1.57 3 .53 3.33-.98.16.98.16-.53 3.32-1.57 3.02-2.38 2.4-3.02 1.55-3.48.55-3.48-.56-3.03-1.57-2.38-2.4-1.56-3-.57-3.5.57-3.47 1.56-3.02 2.38-2.4 3.03-1.55 3.48-.57zm-6.33 1.9l-2.46 1.3-1.95 1.93-1.28 2.47-.46 2.84.46 2.84 1.27 2.47 1.94 1.94 2.46 1.27 2.85.46 2.84-.46 2.46-1.28 1.94-1.95 1.28-2.47.45-2.84-.45-2.84-1.28-2.47-1.94-1.94-2.47-1.3-2.85-.45z"
              fill="#999"/>
        <use xlink:href="#Q" transform="matrix(1,0,0,1,348,589.0584615384616) translate(0.004999999999999005 14.4)"/>
        <use xlink:href="#R" transform="matrix(1,0,0,1,348,589.0584615384616) translate(39.004999999999995 14.4)"/>
        <path d="M820 585c0-2.76 2.24-5 5-5h130c2.76 0 5 2.24 5 5v86.4c0 2.76-2.24 5-5 5H825c-2.76 0-5-2.24-5-5z"
              stroke="#000" stroke-opacity="0" stroke-width="2" fill="#fff" fill-opacity="0"/>
        <use xlink:href="#S" transform="matrix(1,0,0,1,825,585) translate(0 14.4)"/>
        <use xlink:href="#T" transform="matrix(1,0,0,1,825,585) translate(0 36)"/>
        <path d="M181 239h-2v-51.45h2zm0-73.05h-2V114.5h2z" fill="#999"/>
        <path d="M190.9 115.4L180 137.17l-10.9-21.8 1.8-.88 9.1 18.2 9.1-18.2z" fill="#999"/>
        <path d="M183.16 135.46l2.75 1.42 2.17 2.16 1.42 2.75.5 3.15-.5 3.16-1.43 2.75-2.16 2.17-2.74 1.42-3.16.5-3.16-.5-2.75-1.42-2.17-2.17-1.42-2.74-.5-3.15.5-3.16 1.43-2.76 2.16-2.16 2.74-1.42 3.16-.5z"
              fill="#fff"/>
        <path d="M183.48 134.5l3.02 1.56 2.4 2.38 1.55 3.03.54 3.32-1 .15 1 .16-.55 3.33-1.56 3.02-2.4 2.38-3.02 1.57-3.48.56-3.48-.56-3.02-1.57-2.4-2.38-1.55-3.02-.56-3.48.55-3.48 1.56-3.03 2.4-2.38 3.02-1.56 3.48-.57zm-6.32 1.92l-2.47 1.27-1.95 1.94-1.28 2.46-.46 2.85.47 2.84 1.28 2.46 1.94 1.94 2.46 1.28 2.84.45 2.84-.45 2.47-1.28 1.95-1.94 1.28-2.47.46-2.85-.47-2.85-1.28-2.46-1.94-1.95-2.46-1.28-2.84-.46zM190.9 238.1l-1.8.9-9.1-18.2-9.1 18.2-1.8-.9 10.9-21.78z"
              fill="#999"/>
        <path d="M183.16 199.06l2.75 1.42 2.17 2.17 1.42 2.74.5 3.15-.5 3.16-1.43 2.76-2.16 2.16-2.74 1.42-3.16.5-3.16-.5-2.75-1.42-2.17-2.16-1.42-2.75-.5-3.15.5-3.16 1.43-2.75 2.16-2.17 2.74-1.42 3.16-.5z"
              fill="#fff"/>
        <path d="M183.48 198.1l3.02 1.57 2.4 2.38 1.55 3.02.54 3.32-1 .15 1 .16-.55 3.33-1.56 3.03-2.4 2.38-3.02 1.56-3.48.57-3.48-.57-3.02-1.56-2.4-2.38-1.55-3.03-.56-3.48.55-3.48 1.56-3.02 2.4-2.38 3.02-1.57 3.48-.56zm-6.32 1.92l-2.47 1.28-1.95 1.94-1.28 2.47-.46 2.85.47 2.85 1.28 2.46 1.94 1.95 2.46 1.28 2.84.46 2.84-.46 2.47-1.27 1.95-1.94 1.28-2.46.46-2.85-.47-2.84-1.28-2.46-1.94-1.94-2.46-1.28-2.84-.45z"
              fill="#999"/>
        <g>
            <use xlink:href="#U" transform="matrix(1,0,0,1,153.5,165.95) translate(0.004999999999999005 14.4)"/>
        </g>
        <path d="M475 797.2c0-2.76 2.24-5 5-5h240c2.76 0 5 2.24 5 5v62c0 2.76-2.24 5-5 5H480c-2.76 0-5-2.24-5-5z"
              fill="#fff"/>
        <path d="M475 797.2c0-2.76 2.24-5 5-5h240c2.76 0 5 2.24 5 5v62c0 2.76-2.24 5-5 5H480c-2.76 0-5-2.24-5-5zM475 832.2h250"
              stroke="#666" stroke-width="2" fill="none"/>
        <g>
            <use xlink:href="#V" transform="matrix(1,0,0,1,485,792.2) translate(15.350000000000009 23.6)"/>
        </g>
        <path d="M601 791.2h-2v-58.3h2zm0-79.9h-2V653h2z" fill="#999"/>
        <path fill="#fff"/>
        <path d="M610 674h-20v-2h20zM610.9 790.3l-1.8.9L600 773l-9.1 18.2-1.8-.9 10.9-21.78z" fill="#999"/>
        <path d="M603.16 751.26l2.75 1.42 2.17 2.17 1.42 2.74.5 3.15-.5 3.16-1.43 2.76-2.16 2.16-2.74 1.42-3.16.5-3.16-.5-2.75-1.42-2.17-2.16-1.42-2.75-.5-3.15.5-3.16 1.43-2.75 2.16-2.17 2.74-1.42 3.16-.5z"
              fill="#fff"/>
        <path d="M603.48 750.3l3.02 1.57 2.4 2.38 1.55 3.02.54 3.32-1 .15 1 .16-.55 3.33-1.56 3.03-2.4 2.38-3.02 1.56-3.48.57-3.48-.57-3.02-1.56-2.4-2.38-1.55-3.03-.56-3.48.55-3.48 1.56-3.02 2.4-2.38 3.02-1.57 3.48-.56zm-6.32 1.92l-2.47 1.28-1.95 1.94-1.28 2.47-.46 2.85.47 2.85 1.28 2.46 1.94 1.95 2.46 1.28 2.84.46 2.84-.46 2.47-1.27 1.95-1.94 1.28-2.46.46-2.85-.47-2.84-1.28-2.46-1.94-1.94-2.46-1.28-2.84-.45z"
              fill="#999"/>
        <g>
            <use xlink:href="#W"
                 transform="matrix(1,0,0,1,560.025,711.3000000000001) translate(0.005000000000002558 14.4)"/>
        </g>
        <path d="M820 797.2c0-2.76 2.24-5 5-5h130c2.76 0 5 2.24 5 5v62c0 2.76-2.24 5-5 5H825c-2.76 0-5-2.24-5-5z"
              stroke="#000" stroke-opacity="0" stroke-width="2" fill="#fff" fill-opacity="0"/>
        <g>
            <use xlink:href="#X" transform="matrix(1,0,0,1,825,797.2) translate(0 14.4)"/>
            <use xlink:href="#T" transform="matrix(1,0,0,1,825,797.2) translate(0 36)"/>
        </g>
        <defs>
            <path fill="#333"
                  d="M212-179c-10-28-35-45-73-45-59 0-87 40-87 99 0 60 29 101 89 101 43 0 62-24 78-52l27 14C228-24 195 4 139 4 59 4 22-46 18-125c-6-104 99-153 187-111 19 9 31 26 39 46"
                  id="Y"/>
            <path fill="#333" d="M30 0v-248h33v221h125V0H30" id="Z"/>
            <path fill="#333" d="M33 0v-248h34V0H33" id="aa"/>
            <path fill="#333" d="M30 0v-248h187v28H63v79h144v27H63v87h162V0H30" id="ab"/>
            <path fill="#333" d="M190 0L58-211 59 0H30v-248h39L202-35l-2-213h31V0h-41" id="ac"/>
            <path fill="#333" d="M127-220V0H93v-220H8v-28h204v28h-85" id="ad"/>
            <g id="a">
                <use transform="matrix(0.05,0,0,0.05,0,0)" xlink:href="#Y"/>
                <use transform="matrix(0.05,0,0,0.05,12.950000000000001,0)" xlink:href="#Z"/>
                <use transform="matrix(0.05,0,0,0.05,22.950000000000003,0)" xlink:href="#aa"/>
                <use transform="matrix(0.05,0,0,0.05,27.950000000000003,0)" xlink:href="#ab"/>
                <use transform="matrix(0.05,0,0,0.05,39.95,0)" xlink:href="#ac"/>
                <use transform="matrix(0.05,0,0,0.05,52.900000000000006,0)" xlink:href="#ad"/>
            </g>
            <path fill="#333"
                  d="M185-189c-5-48-123-54-124 2 14 75 158 14 163 119 3 78-121 87-175 55-17-10-28-26-33-46l33-7c5 56 141 63 141-1 0-78-155-14-162-118-5-82 145-84 179-34 5 7 8 16 11 25"
                  id="ae"/>
            <path fill="#333" d="M205 0l-28-72H64L36 0H1l101-248h38L239 0h-34zm-38-99l-47-123c-12 45-31 82-46 123h93"
                  id="af"/>
            <path fill="#333" d="M63-220v92h138v28H63V0H30v-248h175v28H63" id="ag"/>
            <path fill="#333"
                  d="M240 0l2-218c-23 76-54 145-80 218h-23L58-218 59 0H30v-248h44l77 211c21-75 51-140 76-211h43V0h-30"
                  id="ah"/>
            <path fill="#333"
                  d="M160-131c35 5 61 23 61 61C221 17 115-2 30 0v-248c76 3 177-17 177 60 0 33-19 50-47 57zm-97-11c50-1 110 9 110-42 0-47-63-36-110-37v79zm0 115c55-2 124 14 124-45 0-56-70-42-124-44v89"
                  id="ai"/>
            <path fill="#333"
                  d="M233-177c-1 41-23 64-60 70L243 0h-38l-65-103H63V0H30v-248c88 3 205-21 203 71zM63-129c60-2 137 13 137-47 0-61-80-42-137-45v92"
                  id="aj"/>
            <g id="b">
                <use transform="matrix(0.05,0,0,0.05,0,0)" xlink:href="#ae"/>
                <use transform="matrix(0.05,0,0,0.05,12,0)" xlink:href="#ad"/>
                <use transform="matrix(0.05,0,0,0.05,21.6,0)" xlink:href="#af"/>
                <use transform="matrix(0.05,0,0,0.05,33.6,0)" xlink:href="#ag"/>
                <use transform="matrix(0.05,0,0,0.05,44.550000000000004,0)" xlink:href="#ag"/>
                <use transform="matrix(0.05,0,0,0.05,55.5,0)" xlink:href="#ah"/>
                <use transform="matrix(0.05,0,0,0.05,70.45,0)" xlink:href="#ab"/>
                <use transform="matrix(0.05,0,0,0.05,82.45,0)" xlink:href="#ah"/>
                <use transform="matrix(0.05,0,0,0.05,97.4,0)" xlink:href="#ai"/>
                <use transform="matrix(0.05,0,0,0.05,109.4,0)" xlink:href="#ab"/>
                <use transform="matrix(0.05,0,0,0.05,121.4,0)" xlink:href="#aj"/>
            </g>
            <path fill="#333"
                  d="M248-111c6-24 9-61-24-58-72 9-57 108-77 169h-31l26-142c3-37-50-30-64-10C52-115 50-51 37 0H6l36-190h30c-1 10-6 24-4 32 13-43 101-52 105 5 13-22 29-41 61-41 90 0 28 129 23 194h-31"
                  id="ak"/>
            <path fill="#333"
                  d="M111-194c62-3 86 47 72 106H45c-7 38 6 69 45 68 27-1 43-14 53-32l24 11C152-15 129 4 87 4 38 3 12-23 12-71c0-70 32-119 99-123zm44 81c14-66-71-72-95-28-4 8-8 17-11 28h106"
                  id="al"/>
            <path fill="#333"
                  d="M51-54c-9 22 5 41 31 30L79-1C43 14 10-4 19-52l22-115H19l5-23h22l19-43h21l-9 43h35l-4 23H73"
                  id="am"/>
            <path fill="#333"
                  d="M55-144c13 50 104 24 104 88C159 21 15 23 1-39l26-10c6 40 102 42 102-4-13-50-104-23-104-87 0-71 143-71 148-8l-29 4c-5-35-85-37-89 0"
                  id="an"/>
            <g id="c">
                <use transform="matrix(0.05,0,0,0.05,0,0)" xlink:href="#ak"/>
                <use transform="matrix(0.05,0,0,0.05,14.950000000000001,0)" xlink:href="#al"/>
                <use transform="matrix(0.05,0,0,0.05,24.950000000000003,0)" xlink:href="#al"/>
                <use transform="matrix(0.05,0,0,0.05,34.95,0)" xlink:href="#am"/>
                <use transform="matrix(0.05,0,0,0.05,39.95,0)" xlink:href="#an"/>
            </g>
            <path fill="#333"
                  d="M30-248c118-7 216 8 213 122C240-48 200 0 122 0H30v-248zM63-27c89 8 146-16 146-99s-60-101-146-95v194"
                  id="ao"/>
            <g id="d">
                <use transform="matrix(0.05,0,0,0.05,0,0)" xlink:href="#af"/>
                <use transform="matrix(0.05,0,0,0.05,12,0)" xlink:href="#ao"/>
                <use transform="matrix(0.05,0,0,0.05,24.950000000000003,0)" xlink:href="#ao"/>
                <use transform="matrix(0.05,0,0,0.05,37.900000000000006,0)" xlink:href="#aj"/>
                <use transform="matrix(0.05,0,0,0.05,50.85000000000001,0)" xlink:href="#ab"/>
                <use transform="matrix(0.05,0,0,0.05,62.85,0)" xlink:href="#ae"/>
                <use transform="matrix(0.05,0,0,0.05,74.85000000000001,0)" xlink:href="#ae"/>
            </g>
            <path fill="#333" d="M66-151c12-25 30-51 66-40l-6 26C45-176 58-65 38 0H6l36-190h30" id="ap"/>
            <path fill="#333"
                  d="M103-194c29 0 47 14 56 36 2-11 5-23 8-32h30L160-5C157 61 82 97 21 62 9 55 4 45 1 30l28-7c7 42 83 31 92-3 4-16 9-38 13-55-13 20-29 36-62 36-40 0-60-25-60-64 0-71 23-131 91-131zm4 24c-53 0-58 54-61 104-2 27 10 44 36 44 49 0 65-50 67-102 1-29-15-46-42-46"
                  id="aq"/>
            <path fill="#333" d="M50-231l6-30h32l-6 30H50zM6 0l37-190h31L37 0H6" id="ar"/>
            <g id="e">
                <use transform="matrix(0.05,0,0,0.05,0,0)" xlink:href="#ap"/>
                <use transform="matrix(0.05,0,0,0.05,5.95,0)" xlink:href="#al"/>
                <use transform="matrix(0.05,0,0,0.05,15.949999999999998,0)" xlink:href="#aq"/>
                <use transform="matrix(0.05,0,0,0.05,25.950000000000003,0)" xlink:href="#ar"/>
                <use transform="matrix(0.05,0,0,0.05,29.899999999999995,0)" xlink:href="#an"/>
                <use transform="matrix(0.05,0,0,0.05,38.9,0)" xlink:href="#am"/>
                <use transform="matrix(0.05,0,0,0.05,43.9,0)" xlink:href="#al"/>
                <use transform="matrix(0.05,0,0,0.05,53.900000000000006,0)" xlink:href="#ap"/>
                <use transform="matrix(0.05,0,0,0.05,59.85,0)" xlink:href="#an"/>
            </g>
            <path fill="#333" d="M24 0v-261h32V0H24" id="as"/>
            <path fill="#333" d="M24-231v-30h32v30H24zM24 0v-190h32V0H24" id="at"/>
            <path fill="#333"
                  d="M100-194c63 0 86 42 84 106H49c0 40 14 67 53 68 26 1 43-12 49-29l28 8c-11 28-37 45-77 45C44 4 14-33 15-96c1-61 26-98 85-98zm52 81c6-60-76-77-97-28-3 7-6 17-6 28h103"
                  id="au"/>
            <path fill="#333"
                  d="M117-194c89-4 53 116 60 194h-32v-121c0-31-8-49-39-48C34-167 62-67 57 0H25l-1-190h30c1 10-1 24 2 32 11-22 29-35 61-36"
                  id="av"/>
            <path fill="#333" d="M59-47c-2 24 18 29 38 22v24C64 9 27 4 27-40v-127H5v-23h24l9-43h21v43h35v23H59v120"
                  id="aw"/>
            <g id="f">
                <use transform="matrix(0.05,0,0,0.05,0,0)" xlink:href="#Y"/>
                <use transform="matrix(0.05,0,0,0.05,12.950000000000001,0)" xlink:href="#as"/>
                <use transform="matrix(0.05,0,0,0.05,16.900000000000002,0)" xlink:href="#at"/>
                <use transform="matrix(0.05,0,0,0.05,20.85,0)" xlink:href="#au"/>
                <use transform="matrix(0.05,0,0,0.05,30.85,0)" xlink:href="#av"/>
                <use transform="matrix(0.05,0,0,0.05,40.85,0)" xlink:href="#aw"/>
                <use transform="matrix(0.05,0,0,0.05,45.85,0)" xlink:href="#aa"/>
                <use transform="matrix(0.05,0,0,0.05,50.85,0)" xlink:href="#ao"/>
                <path fill="#333" d="M-.9 1.25h65.6v1.32H-.9z"/>
            </g>
            <path fill="#333"
                  d="M141-36C126-15 110 5 73 4 37 3 15-17 15-53c-1-64 63-63 125-63 3-35-9-54-41-54-24 1-41 7-42 31l-33-3c5-37 33-52 76-52 45 0 72 20 72 64v82c-1 20 7 32 28 27v20c-31 9-61-2-59-35zM48-53c0 20 12 33 32 33 41-3 63-29 60-74-43 2-92-5-92 41"
                  id="ax"/>
            <path fill="#333"
                  d="M210-169c-67 3-38 105-44 169h-31v-121c0-29-5-50-35-48C34-165 62-65 56 0H25l-1-190h30c1 10-1 24 2 32 10-44 99-50 107 0 11-21 27-35 58-36 85-2 47 119 55 194h-31v-121c0-29-5-49-35-48"
                  id="ay"/>
            <g id="g">
                <use transform="matrix(0.05,0,0,0.05,0,0)" xlink:href="#ac"/>
                <use transform="matrix(0.05,0,0,0.05,12.950000000000001,0)" xlink:href="#ax"/>
                <use transform="matrix(0.05,0,0,0.05,22.950000000000003,0)" xlink:href="#ay"/>
                <use transform="matrix(0.05,0,0,0.05,37.900000000000006,0)" xlink:href="#au"/>
            </g>
            <path fill="#333"
                  d="M85-194c31 0 48 13 60 33l-1-100h32l1 261h-30c-2-10 0-23-3-31C134-8 116 4 85 4 32 4 16-35 15-94c0-66 23-100 70-100zm9 24c-40 0-46 34-46 75 0 40 6 74 45 74 42 0 51-32 51-76 0-42-9-74-50-73"
                  id="az"/>
            <path fill="#333" d="M114-163C36-179 61-72 57 0H25l-1-190h30c1 12-1 29 2 39 6-27 23-49 58-41v29" id="aA"/>
            <path fill="#333"
                  d="M135-143c-3-34-86-38-87 0 15 53 115 12 119 90S17 21 10-45l28-5c4 36 97 45 98 0-10-56-113-15-118-90-4-57 82-63 122-42 12 7 21 19 24 35"
                  id="aB"/>
            <g id="h">
                <use transform="matrix(0.05,0,0,0.05,0,0)" xlink:href="#af"/>
                <use transform="matrix(0.05,0,0,0.05,12,0)" xlink:href="#az"/>
                <use transform="matrix(0.05,0,0,0.05,22,0)" xlink:href="#az"/>
                <use transform="matrix(0.05,0,0,0.05,32,0)" xlink:href="#aA"/>
                <use transform="matrix(0.05,0,0,0.05,37.95,0)" xlink:href="#au"/>
                <use transform="matrix(0.05,0,0,0.05,47.95,0)" xlink:href="#aB"/>
                <use transform="matrix(0.05,0,0,0.05,56.95,0)" xlink:href="#aB"/>
                <use transform="matrix(0.05,0,0,0.05,65.95,0)" xlink:href="#aa"/>
                <use transform="matrix(0.05,0,0,0.05,70.95,0)" xlink:href="#ao"/>
                <path fill="#333" d="M-.9 1.25h85.7v1.32H-.9z"/>
            </g>
            <path fill="#333"
                  d="M84 4C-5 8 30-112 23-190h32v120c0 31 7 50 39 49 72-2 45-101 50-169h31l1 190h-30c-1-10 1-25-2-33-11 22-28 36-60 37"
                  id="aC"/>
            <path fill="#333"
                  d="M115-194c53 0 69 39 70 98 0 66-23 100-70 100C84 3 66-7 56-30L54 0H23l1-261h32v101c10-23 28-34 59-34zm-8 174c40 0 45-34 45-75 0-40-5-75-45-74-42 0-51 32-51 76 0 43 10 73 51 73"
                  id="aD"/>
            <g id="i">
                <use transform="matrix(0.05,0,0,0.05,0,0)" xlink:href="#ae"/>
                <use transform="matrix(0.05,0,0,0.05,12,0)" xlink:href="#aw"/>
                <use transform="matrix(0.05,0,0,0.05,17,0)" xlink:href="#aA"/>
                <use transform="matrix(0.05,0,0,0.05,22.95,0)" xlink:href="#au"/>
                <use transform="matrix(0.05,0,0,0.05,32.95,0)" xlink:href="#au"/>
                <use transform="matrix(0.05,0,0,0.05,42.95,0)" xlink:href="#aw"/>
                <use transform="matrix(0.05,0,0,0.05,47.95,0)" xlink:href="#ac"/>
                <use transform="matrix(0.05,0,0,0.05,60.900000000000006,0)" xlink:href="#aC"/>
                <use transform="matrix(0.05,0,0,0.05,70.9,0)" xlink:href="#ay"/>
                <use transform="matrix(0.05,0,0,0.05,85.85000000000001,0)" xlink:href="#aD"/>
                <use transform="matrix(0.05,0,0,0.05,95.85000000000001,0)" xlink:href="#au"/>
                <use transform="matrix(0.05,0,0,0.05,105.85000000000001,0)" xlink:href="#aA"/>
            </g>
            <g id="j">
                <use transform="matrix(0.05,0,0,0.05,0,0)" xlink:href="#ae"/>
                <use transform="matrix(0.05,0,0,0.05,12,0)" xlink:href="#aw"/>
                <use transform="matrix(0.05,0,0,0.05,17,0)" xlink:href="#aA"/>
                <use transform="matrix(0.05,0,0,0.05,22.95,0)" xlink:href="#au"/>
                <use transform="matrix(0.05,0,0,0.05,32.95,0)" xlink:href="#au"/>
                <use transform="matrix(0.05,0,0,0.05,42.95,0)" xlink:href="#aw"/>
                <use transform="matrix(0.05,0,0,0.05,47.95,0)" xlink:href="#ac"/>
                <use transform="matrix(0.05,0,0,0.05,60.900000000000006,0)" xlink:href="#ax"/>
                <use transform="matrix(0.05,0,0,0.05,70.9,0)" xlink:href="#ay"/>
                <use transform="matrix(0.05,0,0,0.05,85.85000000000001,0)" xlink:href="#au"/>
            </g>
            <g id="k">
                <use transform="matrix(0.05,0,0,0.05,0,0)" xlink:href="#ae"/>
                <use transform="matrix(0.05,0,0,0.05,12,0)" xlink:href="#aC"/>
                <use transform="matrix(0.05,0,0,0.05,22,0)" xlink:href="#aD"/>
                <use transform="matrix(0.05,0,0,0.05,32,0)" xlink:href="#aC"/>
                <use transform="matrix(0.05,0,0,0.05,42,0)" xlink:href="#aA"/>
                <use transform="matrix(0.05,0,0,0.05,47.95,0)" xlink:href="#aD"/>
            </g>
            <path fill="#333"
                  d="M30-248c87 1 191-15 191 75 0 78-77 80-158 76V0H30v-248zm33 125c57 0 124 11 124-50 0-59-68-47-124-48v98"
                  id="aE"/>
            <path fill="#333"
                  d="M100-194c62-1 85 37 85 99 1 63-27 99-86 99S16-35 15-95c0-66 28-99 85-99zM99-20c44 1 53-31 53-75 0-43-8-75-51-75s-53 32-53 75 10 74 51 75"
                  id="aF"/>
            <path fill="#333"
                  d="M96-169c-40 0-48 33-48 73s9 75 48 75c24 0 41-14 43-38l32 2c-6 37-31 61-74 61-59 0-76-41-82-99-10-93 101-131 147-64 4 7 5 14 7 22l-32 3c-4-21-16-35-41-35"
                  id="aG"/>
            <g id="l">
                <use transform="matrix(0.05,0,0,0.05,0,0)" xlink:href="#aE"/>
                <use transform="matrix(0.05,0,0,0.05,12,0)" xlink:href="#aF"/>
                <use transform="matrix(0.05,0,0,0.05,22,0)" xlink:href="#aB"/>
                <use transform="matrix(0.05,0,0,0.05,31,0)" xlink:href="#aw"/>
                <use transform="matrix(0.05,0,0,0.05,36,0)" xlink:href="#aG"/>
                <use transform="matrix(0.05,0,0,0.05,45,0)" xlink:href="#aF"/>
                <use transform="matrix(0.05,0,0,0.05,55,0)" xlink:href="#az"/>
                <use transform="matrix(0.05,0,0,0.05,65,0)" xlink:href="#au"/>
            </g>
            <path fill="#333" d="M101-234c-31-9-42 10-38 44h38v23H63V0H32v-167H5v-23h27c-7-52 17-82 69-68v24" id="aH"/>
            <g id="m">
                <use transform="matrix(0.05,0,0,0.05,0,0)" xlink:href="#ae"/>
                <use transform="matrix(0.05,0,0,0.05,12,0)" xlink:href="#aw"/>
                <use transform="matrix(0.05,0,0,0.05,17,0)" xlink:href="#ax"/>
                <use transform="matrix(0.05,0,0,0.05,27,0)" xlink:href="#aH"/>
                <use transform="matrix(0.05,0,0,0.05,31.649999999999995,0)" xlink:href="#aH"/>
                <use transform="matrix(0.05,0,0,0.05,36.65,0)" xlink:href="#aa"/>
                <use transform="matrix(0.05,0,0,0.05,41.65,0)" xlink:href="#ao"/>
                <path fill="#333" d="M-.9 1.25h56.4v1.32H-.9z"/>
            </g>
            <g id="n">
                <use transform="matrix(0.05,0,0,0.05,0,0)" xlink:href="#ac"/>
                <use transform="matrix(0.05,0,0,0.05,12.950000000000001,0)" xlink:href="#ax"/>
                <use transform="matrix(0.05,0,0,0.05,22.950000000000003,0)" xlink:href="#ay"/>
                <use transform="matrix(0.05,0,0,0.05,37.900000000000006,0)" xlink:href="#au"/>
            </g>
            <path fill="#333" d="M141 0L90-78 38 0H4l68-98-65-92h35l48 74 47-74h35l-64 92 68 98h-35" id="aI"/>
            <g id="o">
                <use transform="matrix(0.05,0,0,0.05,0,0)" xlink:href="#ae"/>
                <use transform="matrix(0.05,0,0,0.05,12,0)" xlink:href="#au"/>
                <use transform="matrix(0.05,0,0,0.05,22,0)" xlink:href="#aI"/>
            </g>
            <path fill="#333"
                  d="M177-190C167-65 218 103 67 71c-23-6-38-20-44-43l32-5c15 47 100 32 89-28v-30C133-14 115 1 83 1 29 1 15-40 15-95c0-56 16-97 71-98 29-1 48 16 59 35 1-10 0-23 2-32h30zM94-22c36 0 50-32 50-73 0-42-14-75-50-75-39 0-46 34-46 75s6 73 46 73"
                  id="aJ"/>
            <g id="p">
                <use transform="matrix(0.05,0,0,0.05,0,0)" xlink:href="#af"/>
                <use transform="matrix(0.05,0,0,0.05,12,0)" xlink:href="#aJ"/>
                <use transform="matrix(0.05,0,0,0.05,22,0)" xlink:href="#au"/>
            </g>
            <path fill="#333"
                  d="M165-48c-4 18 1 34 23 27l-3 20c-29 8-62 0-52-35h-2C116-14 99 4 63 4 30 4 8-16 8-49c0-68 71-67 138-67 10-26 0-56-31-54-26 1-42 9-47 31l-32-5c8-67 160-71 144 15-5 28-9 54-15 81zM42-50c3 52 80 24 89-6 7-12 7-24 11-38-47 1-103-4-100 44"
                  id="aK"/>
            <path fill="#333"
                  d="M67-158c22-48 132-52 116 29L158 0h-32l25-140c3-38-53-32-70-12C52-117 51-52 38 0H6l36-190h30"
                  id="aL"/>
            <g id="q">
                <use transform="matrix(0.05,0,0,0.05,0,0)" xlink:href="#ak"/>
                <use transform="matrix(0.05,0,0,0.05,14.950000000000001,0)" xlink:href="#aK"/>
                <use transform="matrix(0.05,0,0,0.05,24.950000000000003,0)" xlink:href="#aL"/>
                <use transform="matrix(0.05,0,0,0.05,34.95,0)" xlink:href="#aK"/>
                <use transform="matrix(0.05,0,0,0.05,44.95,0)" xlink:href="#aq"/>
                <use transform="matrix(0.05,0,0,0.05,54.95,0)" xlink:href="#al"/>
                <use transform="matrix(0.05,0,0,0.05,64.95,0)" xlink:href="#an"/>
            </g>
            <path fill="#333"
                  d="M143 4C61 4 22-44 18-125c-5-107 100-154 193-111 17 8 29 25 37 43l-32 9c-13-25-37-40-76-40-61 0-88 39-88 99 0 61 29 100 91 101 35 0 62-11 79-27v-45h-74v-28h105v86C228-13 192 4 143 4"
                  id="aM"/>
            <path fill="#333"
                  d="M140-251c81 0 123 46 123 126C263-46 219 4 140 4 59 4 17-45 17-125s42-126 123-126zm0 227c63 0 89-41 89-101s-29-99-89-99c-61 0-89 39-89 99S79-25 140-24"
                  id="aN"/>
            <g id="r">
                <use transform="matrix(0.05,0,0,0.05,0,0)" xlink:href="#ao"/>
                <use transform="matrix(0.05,0,0,0.05,12.950000000000001,0)" xlink:href="#aa"/>
                <use transform="matrix(0.05,0,0,0.05,17.950000000000003,0)" xlink:href="#af"/>
                <use transform="matrix(0.05,0,0,0.05,29.950000000000003,0)" xlink:href="#aM"/>
                <use transform="matrix(0.05,0,0,0.05,43.95,0)" xlink:href="#ac"/>
                <use transform="matrix(0.05,0,0,0.05,56.900000000000006,0)" xlink:href="#aN"/>
                <use transform="matrix(0.05,0,0,0.05,70.9,0)" xlink:href="#ae"/>
                <use transform="matrix(0.05,0,0,0.05,82.9,0)" xlink:href="#aa"/>
                <use transform="matrix(0.05,0,0,0.05,87.9,0)" xlink:href="#ae"/>
            </g>
            <g id="s">
                <use transform="matrix(0.05,0,0,0.05,0,0)" xlink:href="#ao"/>
                <use transform="matrix(0.05,0,0,0.05,12.950000000000001,0)" xlink:href="#at"/>
                <use transform="matrix(0.05,0,0,0.05,16.900000000000002,0)" xlink:href="#ax"/>
                <use transform="matrix(0.05,0,0,0.05,26.900000000000002,0)" xlink:href="#aJ"/>
                <use transform="matrix(0.05,0,0,0.05,36.900000000000006,0)" xlink:href="#av"/>
                <use transform="matrix(0.05,0,0,0.05,46.900000000000006,0)" xlink:href="#aF"/>
                <use transform="matrix(0.05,0,0,0.05,56.900000000000006,0)" xlink:href="#aB"/>
                <use transform="matrix(0.05,0,0,0.05,65.9,0)" xlink:href="#at"/>
                <use transform="matrix(0.05,0,0,0.05,69.85000000000001,0)" xlink:href="#aB"/>
                <use transform="matrix(0.05,0,0,0.05,78.85000000000001,0)" xlink:href="#Y"/>
                <use transform="matrix(0.05,0,0,0.05,91.80000000000001,0)" xlink:href="#aF"/>
                <use transform="matrix(0.05,0,0,0.05,101.80000000000001,0)" xlink:href="#az"/>
                <use transform="matrix(0.05,0,0,0.05,111.80000000000001,0)" xlink:href="#au"/>
                <path fill="#333" d="M-.9 1.25h123.6v1.32H-.9z"/>
            </g>
            <path fill="#333"
                  d="M115-194c55 1 70 41 70 98S169 2 115 4C84 4 66-9 55-30l1 105H24l-1-265h31l2 30c10-21 28-34 59-34zm-8 174c40 0 45-34 45-75s-6-73-45-74c-42 0-51 32-51 76 0 43 10 73 51 73"
                  id="aO"/>
            <g id="t">
                <use transform="matrix(0.05,0,0,0.05,0,0)" xlink:href="#ao"/>
                <use transform="matrix(0.05,0,0,0.05,12.950000000000001,0)" xlink:href="#au"/>
                <use transform="matrix(0.05,0,0,0.05,22.950000000000003,0)" xlink:href="#aB"/>
                <use transform="matrix(0.05,0,0,0.05,31.950000000000003,0)" xlink:href="#aG"/>
                <use transform="matrix(0.05,0,0,0.05,40.95,0)" xlink:href="#aA"/>
                <use transform="matrix(0.05,0,0,0.05,46.900000000000006,0)" xlink:href="#at"/>
                <use transform="matrix(0.05,0,0,0.05,50.85000000000001,0)" xlink:href="#aO"/>
                <use transform="matrix(0.05,0,0,0.05,60.85,0)" xlink:href="#aw"/>
                <use transform="matrix(0.05,0,0,0.05,65.85000000000001,0)" xlink:href="#at"/>
                <use transform="matrix(0.05,0,0,0.05,69.80000000000001,0)" xlink:href="#aF"/>
                <use transform="matrix(0.05,0,0,0.05,79.80000000000001,0)" xlink:href="#av"/>
            </g>
            <g id="u">
                <use transform="matrix(0.05,0,0,0.05,0,0)" xlink:href="#aE"/>
                <use transform="matrix(0.05,0,0,0.05,12,0)" xlink:href="#aj"/>
                <use transform="matrix(0.05,0,0,0.05,24.950000000000003,0)" xlink:href="#af"/>
                <use transform="matrix(0.05,0,0,0.05,36.95,0)" xlink:href="#Y"/>
                <use transform="matrix(0.05,0,0,0.05,49.900000000000006,0)" xlink:href="#ad"/>
                <use transform="matrix(0.05,0,0,0.05,60.85,0)" xlink:href="#aa"/>
                <use transform="matrix(0.05,0,0,0.05,65.85000000000001,0)" xlink:href="#ad"/>
                <use transform="matrix(0.05,0,0,0.05,76.80000000000001,0)" xlink:href="#aa"/>
                <use transform="matrix(0.05,0,0,0.05,81.80000000000001,0)" xlink:href="#aN"/>
                <use transform="matrix(0.05,0,0,0.05,95.80000000000001,0)" xlink:href="#ac"/>
                <use transform="matrix(0.05,0,0,0.05,108.75,0)" xlink:href="#ab"/>
                <use transform="matrix(0.05,0,0,0.05,120.75,0)" xlink:href="#aj"/>
            </g>
            <path fill="#333"
                  d="M67-162c32-53 139-36 121 50C175-51 163 2 97 4 68 4 52-11 42-31 38 6 28 39 22 75H-9l50-265h29c-1 10 0 20-3 28zm89 36c0-26-10-43-35-43-54 0-67 50-69 103-1 29 14 45 42 46 53 0 62-58 62-106"
                  id="aP"/>
            <path fill="#333"
                  d="M30-147c31-64 166-65 159 27C183-49 158 1 86 4 9 8 1-88 30-147zM88-20c53 0 68-48 68-100 0-31-11-51-44-50-52 1-68 46-68 97 0 32 13 53 44 53"
                  id="aQ"/>
            <path fill="#333" d="M89 0H52L20-190h33L74-25l89-165h34" id="aR"/>
            <path fill="#333"
                  d="M133-28C103 26-5 8 13-77c13-62 24-115 90-117 29-1 46 15 56 35l19-102h32L160 0h-30zM45-64c-2 27 10 43 35 43 54-1 69-50 69-103 0-29-15-46-42-46-53-1-58 58-62 106"
                  id="aS"/>
            <g id="v">
                <use transform="matrix(0.05,0,0,0.05,0,0)" xlink:href="#aP"/>
                <use transform="matrix(0.05,0,0,0.05,10,0)" xlink:href="#ap"/>
                <use transform="matrix(0.05,0,0,0.05,15.949999999999998,0)" xlink:href="#aQ"/>
                <use transform="matrix(0.05,0,0,0.05,25.950000000000003,0)" xlink:href="#aR"/>
                <use transform="matrix(0.05,0,0,0.05,34.95,0)" xlink:href="#ar"/>
                <use transform="matrix(0.05,0,0,0.05,38.900000000000006,0)" xlink:href="#aS"/>
                <use transform="matrix(0.05,0,0,0.05,48.900000000000006,0)" xlink:href="#al"/>
                <use transform="matrix(0.05,0,0,0.05,58.900000000000006,0)" xlink:href="#an"/>
            </g>
            <g id="w">
                <use transform="matrix(0.05,0,0,0.05,0,0)" xlink:href="#aE"/>
                <use transform="matrix(0.05,0,0,0.05,12,0)" xlink:href="#aA"/>
                <use transform="matrix(0.05,0,0,0.05,17.95,0)" xlink:href="#ax"/>
                <use transform="matrix(0.05,0,0,0.05,27.950000000000003,0)" xlink:href="#aG"/>
                <use transform="matrix(0.05,0,0,0.05,36.95,0)" xlink:href="#aw"/>
                <use transform="matrix(0.05,0,0,0.05,41.95,0)" xlink:href="#at"/>
                <use transform="matrix(0.05,0,0,0.05,45.900000000000006,0)" xlink:href="#aw"/>
                <use transform="matrix(0.05,0,0,0.05,50.900000000000006,0)" xlink:href="#at"/>
                <use transform="matrix(0.05,0,0,0.05,54.85,0)" xlink:href="#aF"/>
                <use transform="matrix(0.05,0,0,0.05,64.85000000000001,0)" xlink:href="#av"/>
                <use transform="matrix(0.05,0,0,0.05,74.85000000000001,0)" xlink:href="#au"/>
                <use transform="matrix(0.05,0,0,0.05,84.85000000000001,0)" xlink:href="#aA"/>
                <use transform="matrix(0.05,0,0,0.05,90.80000000000001,0)" xlink:href="#aa"/>
                <use transform="matrix(0.05,0,0,0.05,95.80000000000001,0)" xlink:href="#ao"/>
                <path fill="#333" d="M-.9 1.25h110.55v1.32H-.9z"/>
            </g>
            <g id="x">
                <use transform="matrix(0.05,0,0,0.05,0,0)" xlink:href="#ac"/>
                <use transform="matrix(0.05,0,0,0.05,12.950000000000001,0)" xlink:href="#ax"/>
                <use transform="matrix(0.05,0,0,0.05,22.950000000000003,0)" xlink:href="#ay"/>
                <use transform="matrix(0.05,0,0,0.05,37.900000000000006,0)" xlink:href="#au"/>
            </g>
            <path fill="#333" d="M137 0h-34L2-248h35l83 218 83-218h36" id="aT"/>
            <g id="y">
                <use transform="matrix(0.05,0,0,0.05,0,0)" xlink:href="#ae"/>
                <use transform="matrix(0.05,0,0,0.05,12,0)" xlink:href="#ab"/>
                <use transform="matrix(0.05,0,0,0.05,24,0)" xlink:href="#aj"/>
                <use transform="matrix(0.05,0,0,0.05,36.6,0)" xlink:href="#aT"/>
                <use transform="matrix(0.05,0,0,0.05,48.6,0)" xlink:href="#aa"/>
                <use transform="matrix(0.05,0,0,0.05,53.6,0)" xlink:href="#Y"/>
                <use transform="matrix(0.05,0,0,0.05,66.55,0)" xlink:href="#ab"/>
            </g>
            <path d="M140-251c81 0 123 46 123 126C263-53 228-8 163 1c7 30 30 48 69 40v23c-55 16-95-15-103-61C56-3 17-48 17-125c0-80 42-126 123-126zm0 227c63 0 89-41 89-101s-29-99-89-99c-61 0-89 39-89 99S79-25 140-24"
                  id="aU"/>
            <path d="M232-93c-1 65-40 97-104 97C67 4 28-28 28-90v-158h33c8 89-33 224 67 224 102 0 64-133 71-224h33v155"
                  id="aV"/>
            <path d="M205 0l-28-72H64L36 0H1l101-248h38L239 0h-34zm-38-99l-47-123c-12 45-31 82-46 123h93" id="aW"/>
            <path d="M30 0v-248h33v221h125V0H30" id="aX"/>
            <path d="M33 0v-248h34V0H33" id="aY"/>
            <path d="M63-220v92h138v28H63V0H30v-248h175v28H63" id="aZ"/>
            <path d="M212-179c-10-28-35-45-73-45-59 0-87 40-87 99 0 60 29 101 89 101 43 0 62-24 78-52l27 14C228-24 195 4 139 4 59 4 22-46 18-125c-6-104 99-153 187-111 19 9 31 26 39 46"
                  id="ba"/>
            <path d="M127-220V0H93v-220H8v-28h204v28h-85" id="bb"/>
            <path d="M140-251c81 0 123 46 123 126C263-46 219 4 140 4 59 4 17-45 17-125s42-126 123-126zm0 227c63 0 89-41 89-101s-29-99-89-99c-61 0-89 39-89 99S79-25 140-24"
                  id="bc"/>
            <path d="M190 0L58-211 59 0H30v-248h39L202-35l-2-213h31V0h-41" id="bd"/>
            <g id="z">
                <use transform="matrix(0.04938271604938272,0,0,0.04938271604938272,0,0)" xlink:href="#aU"/>
                <use transform="matrix(0.04938271604938272,0,0,0.04938271604938272,13.827160493827162,0)"
                     xlink:href="#aV"/>
                <use transform="matrix(0.04938271604938272,0,0,0.04938271604938272,26.617283950617285,0)"
                     xlink:href="#aW"/>
                <use transform="matrix(0.04938271604938272,0,0,0.04938271604938272,38.46913580246914,0)"
                     xlink:href="#aX"/>
                <use transform="matrix(0.04938271604938272,0,0,0.04938271604938272,48.345679012345684,0)"
                     xlink:href="#aY"/>
                <use transform="matrix(0.04938271604938272,0,0,0.04938271604938272,53.283950617283956,0)"
                     xlink:href="#aZ"/>
                <use transform="matrix(0.04938271604938272,0,0,0.04938271604938272,64.09876543209877,0)"
                     xlink:href="#aY"/>
                <use transform="matrix(0.04938271604938272,0,0,0.04938271604938272,69.03703703703704,0)"
                     xlink:href="#ba"/>
                <use transform="matrix(0.04938271604938272,0,0,0.04938271604938272,81.82716049382717,0)"
                     xlink:href="#aW"/>
                <use transform="matrix(0.04938271604938272,0,0,0.04938271604938272,92.34567901234568,0)"
                     xlink:href="#bb"/>
                <use transform="matrix(0.04938271604938272,0,0,0.04938271604938272,103.16049382716051,0)"
                     xlink:href="#aY"/>
                <use transform="matrix(0.04938271604938272,0,0,0.04938271604938272,108.09876543209876,0)"
                     xlink:href="#bc"/>
                <use transform="matrix(0.04938271604938272,0,0,0.04938271604938272,121.92592592592591,0)"
                     xlink:href="#bd"/>
            </g>
            <path fill="#333"
                  d="M44-68c0 29 11 47 38 47 30 0 42-19 51-41l28 9C148-21 126 4 82 4 31 4 10-29 12-85c3-77 74-140 146-93 12 8 15 23 18 40l-31 5c-1-22-13-36-36-36-52 0-65 49-65 101"
                  id="be"/>
            <g id="A">
                <use transform="matrix(0.05,0,0,0.05,0,0)" xlink:href="#aK"/>
                <use transform="matrix(0.05,0,0,0.05,10,0)" xlink:href="#be"/>
                <use transform="matrix(0.05,0,0,0.05,19,0)" xlink:href="#be"/>
                <use transform="matrix(0.05,0,0,0.05,28,0)" xlink:href="#al"/>
                <use transform="matrix(0.05,0,0,0.05,38,0)" xlink:href="#an"/>
                <use transform="matrix(0.05,0,0,0.05,47,0)" xlink:href="#an"/>
                <use transform="matrix(0.05,0,0,0.05,56,0)" xlink:href="#al"/>
                <use transform="matrix(0.05,0,0,0.05,66,0)" xlink:href="#an"/>
            </g>
            <path fill="#333"
                  d="M67 3c-93-2-31-127-26-193h32L48-50c-3 39 53 32 70 12 30-34 30-101 43-152h32L157 0h-30c1-10 6-24 4-33-14 20-29 37-64 36"
                  id="bf"/>
            <g id="B">
                <use transform="matrix(0.05,0,0,0.05,0,0)" xlink:href="#be"/>
                <use transform="matrix(0.05,0,0,0.05,9,0)" xlink:href="#aQ"/>
                <use transform="matrix(0.05,0,0,0.05,19,0)" xlink:href="#aL"/>
                <use transform="matrix(0.05,0,0,0.05,29,0)" xlink:href="#aS"/>
                <use transform="matrix(0.05,0,0,0.05,39,0)" xlink:href="#bf"/>
                <use transform="matrix(0.05,0,0,0.05,49,0)" xlink:href="#be"/>
                <use transform="matrix(0.05,0,0,0.05,58,0)" xlink:href="#am"/>
                <use transform="matrix(0.05,0,0,0.05,63,0)" xlink:href="#an"/>
            </g>
            <path fill="#333" d="M108 0H70L1-190h34L89-25l56-165h34" id="bg"/>
            <g id="C">
                <use transform="matrix(0.05,0,0,0.05,0,0)" xlink:href="#ae"/>
                <use transform="matrix(0.05,0,0,0.05,12,0)" xlink:href="#au"/>
                <use transform="matrix(0.05,0,0,0.05,22,0)" xlink:href="#aA"/>
                <use transform="matrix(0.05,0,0,0.05,27.950000000000003,0)" xlink:href="#bg"/>
                <use transform="matrix(0.05,0,0,0.05,36.95,0)" xlink:href="#at"/>
                <use transform="matrix(0.05,0,0,0.05,40.900000000000006,0)" xlink:href="#aG"/>
                <use transform="matrix(0.05,0,0,0.05,49.900000000000006,0)" xlink:href="#au"/>
                <use transform="matrix(0.05,0,0,0.05,59.900000000000006,0)" xlink:href="#Y"/>
                <use transform="matrix(0.05,0,0,0.05,72.85000000000001,0)" xlink:href="#aF"/>
                <use transform="matrix(0.05,0,0,0.05,82.85000000000001,0)" xlink:href="#az"/>
                <use transform="matrix(0.05,0,0,0.05,92.85000000000001,0)" xlink:href="#au"/>
                <path fill="#333" d="M-.9 1.25h104.65v1.32H-.9z"/>
            </g>
            <g id="D">
                <use transform="matrix(0.05,0,0,0.05,0,0)" xlink:href="#ao"/>
                <use transform="matrix(0.05,0,0,0.05,12.950000000000001,0)" xlink:href="#au"/>
                <use transform="matrix(0.05,0,0,0.05,22.950000000000003,0)" xlink:href="#aw"/>
                <use transform="matrix(0.05,0,0,0.05,27.950000000000003,0)" xlink:href="#ax"/>
                <use transform="matrix(0.05,0,0,0.05,37.95,0)" xlink:href="#at"/>
                <use transform="matrix(0.05,0,0,0.05,41.900000000000006,0)" xlink:href="#as"/>
                <use transform="matrix(0.05,0,0,0.05,45.85000000000001,0)" xlink:href="#aB"/>
            </g>
            <path fill="#333"
                  d="M133-28C103 26-5 8 13-77c13-62 24-115 90-117 29-1 46 15 56 35 2-12 6-24 8-34h31L144 75h-31zM45-64c-2 27 10 43 35 43 54-1 69-50 69-103 0-29-15-46-42-46-53-1-58 58-62 106"
                  id="bh"/>
            <path fill="#333" d="M6 0l50-261h32L37 0H6" id="bi"/>
            <path fill="#333" d="M76-167L44 0H12l33-167H18l4-23h27c3-47 25-81 82-69l-4 24c-35-8-44 15-46 45h37l-5 23H76"
                  id="bj"/>
            <g id="E">
                <use transform="matrix(0.05,0,0,0.05,0,0)" xlink:href="#bh"/>
                <use transform="matrix(0.05,0,0,0.05,10,0)" xlink:href="#bf"/>
                <use transform="matrix(0.05,0,0,0.05,20,0)" xlink:href="#aK"/>
                <use transform="matrix(0.05,0,0,0.05,30,0)" xlink:href="#bi"/>
                <use transform="matrix(0.05,0,0,0.05,33.95,0)" xlink:href="#ar"/>
                <use transform="matrix(0.05,0,0,0.05,37.900000000000006,0)" xlink:href="#bj"/>
                <use transform="matrix(0.05,0,0,0.05,42.900000000000006,0)" xlink:href="#ar"/>
                <use transform="matrix(0.05,0,0,0.05,46.85000000000001,0)" xlink:href="#al"/>
                <use transform="matrix(0.05,0,0,0.05,56.85,0)" xlink:href="#an"/>
            </g>
            <path fill="#333"
                  d="M140-251c81 0 123 46 123 126C263-53 228-8 163 1c7 30 30 48 69 40v23c-55 16-95-15-103-61C56-3 17-48 17-125c0-80 42-126 123-126zm0 227c63 0 89-41 89-101s-29-99-89-99c-61 0-89 39-89 99S79-25 140-24"
                  id="bk"/>
            <g id="F">
                <use transform="matrix(0.05,0,0,0.05,0,0)" xlink:href="#bk"/>
                <use transform="matrix(0.05,0,0,0.05,14,0)" xlink:href="#aC"/>
                <use transform="matrix(0.05,0,0,0.05,24,0)" xlink:href="#ax"/>
                <use transform="matrix(0.05,0,0,0.05,34,0)" xlink:href="#as"/>
                <use transform="matrix(0.05,0,0,0.05,37.95,0)" xlink:href="#at"/>
                <use transform="matrix(0.05,0,0,0.05,41.900000000000006,0)" xlink:href="#aH"/>
                <use transform="matrix(0.05,0,0,0.05,46.900000000000006,0)" xlink:href="#at"/>
                <use transform="matrix(0.05,0,0,0.05,50.85000000000001,0)" xlink:href="#aG"/>
                <use transform="matrix(0.05,0,0,0.05,59.85,0)" xlink:href="#ax"/>
                <use transform="matrix(0.05,0,0,0.05,69.85000000000001,0)" xlink:href="#aw"/>
                <use transform="matrix(0.05,0,0,0.05,74.85000000000001,0)" xlink:href="#at"/>
                <use transform="matrix(0.05,0,0,0.05,78.80000000000001,0)" xlink:href="#aF"/>
                <use transform="matrix(0.05,0,0,0.05,88.80000000000001,0)" xlink:href="#av"/>
                <use transform="matrix(0.05,0,0,0.05,98.80000000000001,0)" xlink:href="#ac"/>
                <use transform="matrix(0.05,0,0,0.05,111.75,0)" xlink:href="#ax"/>
                <use transform="matrix(0.05,0,0,0.05,121.75,0)" xlink:href="#ay"/>
                <use transform="matrix(0.05,0,0,0.05,136.70000000000002,0)" xlink:href="#au"/>
                <path fill="#333" d="M-.9 1.25h148.5v1.32H-.9z"/>
            </g>
            <g id="G">
                <use transform="matrix(0.05,0,0,0.05,0,0)" xlink:href="#ao"/>
                <use transform="matrix(0.05,0,0,0.05,12.950000000000001,0)" xlink:href="#au"/>
                <use transform="matrix(0.05,0,0,0.05,22.950000000000003,0)" xlink:href="#aw"/>
                <use transform="matrix(0.05,0,0,0.05,27.950000000000003,0)" xlink:href="#ax"/>
                <use transform="matrix(0.05,0,0,0.05,37.95,0)" xlink:href="#at"/>
                <use transform="matrix(0.05,0,0,0.05,41.900000000000006,0)" xlink:href="#as"/>
                <use transform="matrix(0.05,0,0,0.05,45.85000000000001,0)" xlink:href="#aB"/>
            </g>
            <path fill="#333"
                  d="M232-93c-1 65-40 97-104 97C67 4 28-28 28-90v-158h33c8 89-33 224 67 224 102 0 64-133 71-224h33v155"
                  id="bl"/>
            <path fill="#333" d="M137-103V0h-34v-103L8-248h37l75 118 75-118h37" id="bm"/>
            <g id="H">
                <use transform="matrix(0.05,0,0,0.05,0,0)" xlink:href="#ag"/>
                <use transform="matrix(0.05,0,0,0.05,10.950000000000001,0)" xlink:href="#bl"/>
                <use transform="matrix(0.05,0,0,0.05,23.900000000000002,0)" xlink:href="#ac"/>
                <use transform="matrix(0.05,0,0,0.05,36.85,0)" xlink:href="#ao"/>
                <use transform="matrix(0.05,0,0,0.05,49.800000000000004,0)" xlink:href="#aa"/>
                <use transform="matrix(0.05,0,0,0.05,54.800000000000004,0)" xlink:href="#ac"/>
                <use transform="matrix(0.05,0,0,0.05,67.75,0)" xlink:href="#aM"/>
                <use transform="matrix(0.05,0,0,0.05,81.75,0)" xlink:href="#ai"/>
                <use transform="matrix(0.05,0,0,0.05,93.75,0)" xlink:href="#aN"/>
                <use transform="matrix(0.05,0,0,0.05,107.75,0)" xlink:href="#ao"/>
                <use transform="matrix(0.05,0,0,0.05,120.7,0)" xlink:href="#bm"/>
            </g>
            <g id="I">
                <use transform="matrix(0.05,0,0,0.05,0,0)" xlink:href="#aK"/>
                <use transform="matrix(0.05,0,0,0.05,10,0)" xlink:href="#aP"/>
                <use transform="matrix(0.05,0,0,0.05,20,0)" xlink:href="#aP"/>
                <use transform="matrix(0.05,0,0,0.05,30,0)" xlink:href="#ap"/>
                <use transform="matrix(0.05,0,0,0.05,35.95,0)" xlink:href="#aQ"/>
                <use transform="matrix(0.05,0,0,0.05,45.95,0)" xlink:href="#aR"/>
                <use transform="matrix(0.05,0,0,0.05,54.95,0)" xlink:href="#al"/>
                <use transform="matrix(0.05,0,0,0.05,64.95,0)" xlink:href="#an"/>
            </g>
            <g id="J">
                <use transform="matrix(0.05,0,0,0.05,0,0)" xlink:href="#ag"/>
                <use transform="matrix(0.05,0,0,0.05,10.950000000000001,0)" xlink:href="#aC"/>
                <use transform="matrix(0.05,0,0,0.05,20.950000000000003,0)" xlink:href="#av"/>
                <use transform="matrix(0.05,0,0,0.05,30.950000000000003,0)" xlink:href="#az"/>
                <use transform="matrix(0.05,0,0,0.05,40.95,0)" xlink:href="#au"/>
                <use transform="matrix(0.05,0,0,0.05,50.95,0)" xlink:href="#aA"/>
                <use transform="matrix(0.05,0,0,0.05,56.900000000000006,0)" xlink:href="#aa"/>
                <use transform="matrix(0.05,0,0,0.05,61.900000000000006,0)" xlink:href="#ao"/>
                <path fill="#333" d="M-.9 1.25h76.65v1.32H-.9z"/>
            </g>
            <g id="K">
                <use transform="matrix(0.05,0,0,0.05,0,0)" xlink:href="#ah"/>
                <use transform="matrix(0.05,0,0,0.05,14.950000000000001,0)" xlink:href="#aN"/>
                <use transform="matrix(0.05,0,0,0.05,28.950000000000003,0)" xlink:href="#ai"/>
                <use transform="matrix(0.05,0,0,0.05,40.95,0)" xlink:href="#aa"/>
                <use transform="matrix(0.05,0,0,0.05,45.95,0)" xlink:href="#Z"/>
                <use transform="matrix(0.05,0,0,0.05,55.95,0)" xlink:href="#aa"/>
                <use transform="matrix(0.05,0,0,0.05,60.95,0)" xlink:href="#ad"/>
                <use transform="matrix(0.05,0,0,0.05,71.9,0)" xlink:href="#bm"/>
                <use transform="matrix(0.05,0,0,0.05,83.9,0)" xlink:href="#ad"/>
                <use transform="matrix(0.05,0,0,0.05,94.85000000000001,0)" xlink:href="#ab"/>
                <use transform="matrix(0.05,0,0,0.05,106.85000000000001,0)" xlink:href="#ae"/>
                <use transform="matrix(0.05,0,0,0.05,118.85000000000001,0)" xlink:href="#ad"/>
            </g>
            <g id="L">
                <use transform="matrix(0.05,0,0,0.05,0,0)" xlink:href="#ap"/>
                <use transform="matrix(0.05,0,0,0.05,5.95,0)" xlink:href="#al"/>
                <use transform="matrix(0.05,0,0,0.05,15.949999999999998,0)" xlink:href="#bh"/>
                <use transform="matrix(0.05,0,0,0.05,25.950000000000003,0)" xlink:href="#bf"/>
                <use transform="matrix(0.05,0,0,0.05,35.95,0)" xlink:href="#al"/>
                <use transform="matrix(0.05,0,0,0.05,45.95,0)" xlink:href="#an"/>
                <use transform="matrix(0.05,0,0,0.05,54.95,0)" xlink:href="#am"/>
                <use transform="matrix(0.05,0,0,0.05,59.95,0)" xlink:href="#an"/>
            </g>
            <g id="M">
                <use transform="matrix(0.05,0,0,0.05,0,0)" xlink:href="#ad"/>
                <use transform="matrix(0.05,0,0,0.05,8.950000000000001,0)" xlink:href="#au"/>
                <use transform="matrix(0.05,0,0,0.05,18.950000000000003,0)" xlink:href="#aB"/>
                <use transform="matrix(0.05,0,0,0.05,27.950000000000003,0)" xlink:href="#aw"/>
                <use transform="matrix(0.05,0,0,0.05,32.95,0)" xlink:href="#aa"/>
                <use transform="matrix(0.05,0,0,0.05,37.95,0)" xlink:href="#ao"/>
                <path fill="#333" d="M-.9 1.25h52.7v1.32H-.9z"/>
            </g>
            <g id="N">
                <use transform="matrix(0.05,0,0,0.05,0,0)" xlink:href="#ao"/>
                <use transform="matrix(0.05,0,0,0.05,12.950000000000001,0)" xlink:href="#au"/>
                <use transform="matrix(0.05,0,0,0.05,22.950000000000003,0)" xlink:href="#aw"/>
                <use transform="matrix(0.05,0,0,0.05,27.950000000000003,0)" xlink:href="#ax"/>
                <use transform="matrix(0.05,0,0,0.05,37.95,0)" xlink:href="#at"/>
                <use transform="matrix(0.05,0,0,0.05,41.900000000000006,0)" xlink:href="#as"/>
                <use transform="matrix(0.05,0,0,0.05,45.85000000000001,0)" xlink:href="#aB"/>
            </g>
            <g id="P">
                <use transform="matrix(0.05,0,0,0.05,0,0)" xlink:href="#ah"/>
                <use transform="matrix(0.05,0,0,0.05,14.950000000000001,0)" xlink:href="#aN"/>
                <use transform="matrix(0.05,0,0,0.05,28.950000000000003,0)" xlink:href="#ai"/>
                <use transform="matrix(0.05,0,0,0.05,40.95,0)" xlink:href="#aa"/>
                <use transform="matrix(0.05,0,0,0.05,45.95,0)" xlink:href="#Z"/>
                <use transform="matrix(0.05,0,0,0.05,55.95,0)" xlink:href="#aa"/>
                <use transform="matrix(0.05,0,0,0.05,60.95,0)" xlink:href="#ad"/>
                <use transform="matrix(0.05,0,0,0.05,71.9,0)" xlink:href="#bm"/>
                <use transform="matrix(0.05,0,0,0.05,83.9,0)" xlink:href="#ad"/>
                <use transform="matrix(0.05,0,0,0.05,94.85000000000001,0)" xlink:href="#ab"/>
                <use transform="matrix(0.05,0,0,0.05,106.85000000000001,0)" xlink:href="#ae"/>
                <use transform="matrix(0.05,0,0,0.05,118.85000000000001,0)" xlink:href="#ad"/>
                <use transform="matrix(0.05,0,0,0.05,129.8,0)" xlink:href="#aa"/>
                <use transform="matrix(0.05,0,0,0.05,134.8,0)" xlink:href="#ac"/>
                <use transform="matrix(0.05,0,0,0.05,147.75,0)" xlink:href="#aM"/>
                <use transform="matrix(0.05,0,0,0.05,161.75,0)" xlink:href="#ag"/>
                <use transform="matrix(0.05,0,0,0.05,171.7,0)" xlink:href="#af"/>
                <use transform="matrix(0.05,0,0,0.05,183.7,0)" xlink:href="#Y"/>
                <use transform="matrix(0.05,0,0,0.05,196.64999999999998,0)" xlink:href="#aa"/>
                <use transform="matrix(0.05,0,0,0.05,201.64999999999998,0)" xlink:href="#Z"/>
                <use transform="matrix(0.05,0,0,0.05,210.29999999999995,0)" xlink:href="#ad"/>
                <use transform="matrix(0.05,0,0,0.05,221.24999999999997,0)" xlink:href="#bm"/>
            </g>
            <g id="Q">
                <use transform="matrix(0.05,0,0,0.05,0,0)" xlink:href="#an"/>
                <use transform="matrix(0.05,0,0,0.05,9,0)" xlink:href="#al"/>
                <use transform="matrix(0.05,0,0,0.05,19,0)" xlink:href="#aL"/>
                <use transform="matrix(0.05,0,0,0.05,29,0)" xlink:href="#am"/>
            </g>
            <g id="R">
                <use transform="matrix(0.05,0,0,0.05,0,0)" xlink:href="#am"/>
                <use transform="matrix(0.05,0,0,0.05,5,0)" xlink:href="#aQ"/>
            </g>
            <path fill="#333" d="M179-190L93 31C79 59 56 82 12 73V49c39 6 53-20 64-50L1-190h34L92-34l54-156h33"
                  id="bn"/>
            <g id="S">
                <use transform="matrix(0.05,0,0,0.05,0,0)" xlink:href="#ag"/>
                <use transform="matrix(0.05,0,0,0.05,10.950000000000001,0)" xlink:href="#ax"/>
                <use transform="matrix(0.05,0,0,0.05,20.950000000000003,0)" xlink:href="#aG"/>
                <use transform="matrix(0.05,0,0,0.05,29.950000000000003,0)" xlink:href="#at"/>
                <use transform="matrix(0.05,0,0,0.05,33.900000000000006,0)" xlink:href="#as"/>
                <use transform="matrix(0.05,0,0,0.05,37.85000000000001,0)" xlink:href="#at"/>
                <use transform="matrix(0.05,0,0,0.05,41.80000000000001,0)" xlink:href="#aw"/>
                <use transform="matrix(0.05,0,0,0.05,46.80000000000001,0)" xlink:href="#bn"/>
                <use transform="matrix(0.05,0,0,0.05,55.80000000000001,0)" xlink:href="#Y"/>
                <use transform="matrix(0.05,0,0,0.05,68.75000000000001,0)" xlink:href="#aF"/>
                <use transform="matrix(0.05,0,0,0.05,78.75000000000001,0)" xlink:href="#az"/>
                <use transform="matrix(0.05,0,0,0.05,88.75000000000001,0)" xlink:href="#au"/>
                <path fill="#333" d="M-.9 1.25H99.65v1.32H-.9z"/>
            </g>
            <g id="T">
                <use transform="matrix(0.05,0,0,0.05,0,0)" xlink:href="#ao"/>
                <use transform="matrix(0.05,0,0,0.05,12.950000000000001,0)" xlink:href="#au"/>
                <use transform="matrix(0.05,0,0,0.05,22.950000000000003,0)" xlink:href="#aw"/>
                <use transform="matrix(0.05,0,0,0.05,27.950000000000003,0)" xlink:href="#ax"/>
                <use transform="matrix(0.05,0,0,0.05,37.95,0)" xlink:href="#at"/>
                <use transform="matrix(0.05,0,0,0.05,41.900000000000006,0)" xlink:href="#as"/>
                <use transform="matrix(0.05,0,0,0.05,45.85000000000001,0)" xlink:href="#aB"/>
            </g>
            <g id="U">
                <use transform="matrix(0.05,0,0,0.05,0,0)" xlink:href="#aK"/>
                <use transform="matrix(0.05,0,0,0.05,10,0)" xlink:href="#bj"/>
                <use transform="matrix(0.05,0,0,0.05,15,0)" xlink:href="#bj"/>
                <use transform="matrix(0.05,0,0,0.05,20,0)" xlink:href="#al"/>
                <use transform="matrix(0.05,0,0,0.05,30,0)" xlink:href="#be"/>
                <use transform="matrix(0.05,0,0,0.05,39,0)" xlink:href="#am"/>
                <use transform="matrix(0.05,0,0,0.05,44,0)" xlink:href="#an"/>
            </g>
            <g id="V">
                <use transform="matrix(0.05,0,0,0.05,0,0)" xlink:href="#ah"/>
                <use transform="matrix(0.05,0,0,0.05,14.950000000000001,0)" xlink:href="#aN"/>
                <use transform="matrix(0.05,0,0,0.05,28.950000000000003,0)" xlink:href="#ai"/>
                <use transform="matrix(0.05,0,0,0.05,40.95,0)" xlink:href="#aa"/>
                <use transform="matrix(0.05,0,0,0.05,45.95,0)" xlink:href="#Z"/>
                <use transform="matrix(0.05,0,0,0.05,55.95,0)" xlink:href="#aa"/>
                <use transform="matrix(0.05,0,0,0.05,60.95,0)" xlink:href="#ad"/>
                <use transform="matrix(0.05,0,0,0.05,71.9,0)" xlink:href="#bm"/>
                <use transform="matrix(0.05,0,0,0.05,83.9,0)" xlink:href="#ad"/>
                <use transform="matrix(0.05,0,0,0.05,94.85000000000001,0)" xlink:href="#ab"/>
                <use transform="matrix(0.05,0,0,0.05,106.85000000000001,0)" xlink:href="#ae"/>
                <use transform="matrix(0.05,0,0,0.05,118.85000000000001,0)" xlink:href="#ad"/>
                <use transform="matrix(0.05,0,0,0.05,129.8,0)" xlink:href="#aj"/>
                <use transform="matrix(0.05,0,0,0.05,142.75,0)" xlink:href="#ab"/>
                <use transform="matrix(0.05,0,0,0.05,154.75,0)" xlink:href="#ae"/>
                <use transform="matrix(0.05,0,0,0.05,166.75,0)" xlink:href="#bl"/>
                <use transform="matrix(0.05,0,0,0.05,179.7,0)" xlink:href="#Z"/>
                <use transform="matrix(0.05,0,0,0.05,188.35,0)" xlink:href="#ad"/>
            </g>
            <g id="W">
                <use transform="matrix(0.05,0,0,0.05,0,0)" xlink:href="#aq"/>
                <use transform="matrix(0.05,0,0,0.05,10,0)" xlink:href="#al"/>
                <use transform="matrix(0.05,0,0,0.05,20,0)" xlink:href="#aL"/>
                <use transform="matrix(0.05,0,0,0.05,30,0)" xlink:href="#al"/>
                <use transform="matrix(0.05,0,0,0.05,40,0)" xlink:href="#ap"/>
                <use transform="matrix(0.05,0,0,0.05,45.95,0)" xlink:href="#aK"/>
                <use transform="matrix(0.05,0,0,0.05,55.95,0)" xlink:href="#am"/>
                <use transform="matrix(0.05,0,0,0.05,60.95,0)" xlink:href="#al"/>
                <use transform="matrix(0.05,0,0,0.05,70.95,0)" xlink:href="#an"/>
            </g>
            <g id="X">
                <use transform="matrix(0.05,0,0,0.05,0,0)" xlink:href="#ad"/>
                <use transform="matrix(0.05,0,0,0.05,8.950000000000001,0)" xlink:href="#au"/>
                <use transform="matrix(0.05,0,0,0.05,18.950000000000003,0)" xlink:href="#aB"/>
                <use transform="matrix(0.05,0,0,0.05,27.950000000000003,0)" xlink:href="#aw"/>
                <use transform="matrix(0.05,0,0,0.05,32.95,0)" xlink:href="#aj"/>
                <use transform="matrix(0.05,0,0,0.05,45.900000000000006,0)" xlink:href="#au"/>
                <use transform="matrix(0.05,0,0,0.05,55.900000000000006,0)" xlink:href="#aB"/>
                <use transform="matrix(0.05,0,0,0.05,64.9,0)" xlink:href="#aC"/>
                <use transform="matrix(0.05,0,0,0.05,74.9,0)" xlink:href="#as"/>
                <use transform="matrix(0.05,0,0,0.05,78.85000000000001,0)" xlink:href="#aw"/>
                <use transform="matrix(0.05,0,0,0.05,83.85000000000001,0)" xlink:href="#aa"/>
                <use transform="matrix(0.05,0,0,0.05,88.85000000000001,0)" xlink:href="#ao"/>
                <path fill="#333" d="M-.9 1.25h103.6v1.32H-.9z"/>
            </g>
        </defs>
    </g>
</svg>
